<!-- Legacy Battle — Halo + LB Monogram (transparent SVG) -->
<svg width="320" height="320" viewBox="0 0 512 512" fill="none" xmlns="http://www.w3.org/2000/svg" role="img" aria-label="Legacy Battle logo">
  <defs>
    <!-- Core Reds - using design system tokens -->
    <linearGradient id="lbRed" x1="0" y1="0" x2="1" y2="1">
      <stop offset="0%"  stop-color="hsl(0, 85%, 73%)"/>
      <stop offset="60%" stop-color="hsl(0, 85%, 63%)"/>
      <stop offset="100%" stop-color="hsl(0, 85%, 53%)"/>
    </linearGradient>

    <!-- Outer glow for the halo -->
    <radialGradient id="haloGlow" cx="50%" cy="50%" r="50%">
      <stop offset="65%" stop-color="hsl(0, 85%, 63%)" stop-opacity="0.75"/>
      <stop offset="85%" stop-color="hsl(0, 85%, 53%)" stop-opacity="0.35"/>
      <stop offset="100%" stop-color="#000000" stop-opacity="0"/>
    </radialGradient>

    <!-- Subtle inner sheen for letters -->
    <linearGradient id="innerSheen" x1="0" y1="0" x2="0" y2="1">
      <stop offset="0%" stop-color="#FFFFFF" stop-opacity="0.18"/>
      <stop offset="45%" stop-color="#FFFFFF" stop-opacity="0.06"/>
      <stop offset="100%" stop-color="#000000" stop-opacity="0.0"/>
    </linearGradient>

    <!-- Soft shadow under the marks (keeps background transparent) -->
    <filter id="softShadow" x="-50%" y="-50%" width="200%" height="200%">
      <feDropShadow dx="0" dy="6" stdDeviation="8" flood-color="#000000" flood-opacity="0.45"/>
    </filter>

    <!-- Strong rim glow around the ring -->
    <filter id="ringGlow" x="-50%" y="-50%" width="200%" height="200%">
      <feGaussianBlur stdDeviation="3" result="blur"/>
      <feColorMatrix in="blur" type="matrix"
        values="1 0 0 0 0
                0 1 0 0 0
                0 0 1 0 0
                0 0 0 18 -8"/>
    </filter>
  </defs>

  <!-- Transparent background (nothing drawn) -->

  <!-- Ambient glow field -->
  <circle cx="256" cy="256" r="236" fill="url(#haloGlow)"/>

  <!-- Outer halo ring (stroke) -->
  <g filter="url(#ringGlow)">
    <circle cx="256" cy="256" r="200" fill="none" stroke="url(#lbRed)" stroke-width="18" />
  </g>

  <!-- Inner ring (gives the two-layer look) -->
  <circle cx="256" cy="256" r="168" fill="none" stroke="url(#lbRed)" stroke-width="6" opacity="0.85"/>

  <!-- LB Monogram (geometric, angular corners) -->
  <g filter="url(#softShadow)">
    <!-- "L" -->
    <path d="M170 165 h64 v192 h-98 v-48 h34 z" fill="url(#lbRed)"/>
    <!-- "B" (constructed as a single path with inner cuts to mimic the beveled, angular B) -->
    <path d="
      M278 165 h96
      l22 32 v38 l-22 24 22 26 v40 l-24 32 h-94 v-192 z

      M322 205 v34 h38 l10-11 v-12 l-9-11 h-39 z

      M322 267 v38 h42 l12-14 v-10 l-12-14 h-42 z
    " fill="url(#lbRed)"/>

    <!-- Subtle top sheen to letters -->
    <path d="M170 165 h64 v96 h-98 v-48 h34 z" fill="url(#innerSheen)" />
    <path d="M278 165 h96 l22 32 v38 l-22 24 h-74 v-94 z" fill="url(#innerSheen)" opacity="0.5"/>
  </g>
</svg>
