<!-- Legacy Battle — Hero Lockup (Halo + Wordmark) -->
<svg width="960" height="540" viewBox="0 0 960 540" xmlns="http://www.w3.org/2000/svg" role="img" aria-label="Legacy Battle logo lockup">
  <defs>
    <!-- Brand reds -->
    <linearGradient id="lbRed" x1="0" y1="0" x2="1" y2="1">
      <stop offset="0%"  stop-color="#FF4D4D"/>
      <stop offset="60%" stop-color="#FF0000"/>
      <stop offset="100%" stop-color="#990000"/>
    </linearGradient>

    <!-- Halo glow -->
    <radialGradient id="haloGlow" cx="50%" cy="50%" r="50%">
      <stop offset="65%" stop-color="#FF3030" stop-opacity="0.72"/>
      <stop offset="85%" stop-color="#FF0000" stop-opacity="0.35"/>
      <stop offset="100%" stop-color="#000000" stop-opacity="0"/>
    </radialGradient>

    <!-- Sheen for letterforms -->
    <linearGradient id="sheen" x1="0" y1="0" x2="0" y2="1">
      <stop offset="0%" stop-color="#FFFFFF" stop-opacity="0.18"/>
      <stop offset="45%" stop-color="#FFFFFF" stop-opacity="0.06"/>
      <stop offset="100%" stop-color="#000000" stop-opacity="0"/>
    </linearGradient>

    <!-- Soft shadows -->
    <filter id="softShadow" x="-50%" y="-50%" width="200%" height="200%">
      <feDropShadow dx="0" dy="6" stdDeviation="8" flood-color="#000000" flood-opacity="0.45"/>
    </filter>
    <filter id="ringGlow" x="-50%" y="-50%" width="200%" height="200%">
      <feGaussianBlur stdDeviation="3" result="b"/>
      <feColorMatrix in="b" type="matrix"
        values="1 0 0 0 0
                0 1 0 0 0
                0 0 1 0 0
                0 0 0 18 -8"/>
    </filter>

    <!-- Shared text style -->
    <style>
      .word {
        font-family: "Legacy Battle Stencil", "Impact", "Oswald", "Anton", system-ui, -apple-system, Segoe UI, Roboto, sans-serif;
        font-weight: 800;
        letter-spacing: 0.06em;
        text-transform: uppercase;
      }
    </style>
  </defs>

  <!-- Transparent background (draw nothing) -->

  <!-- LEFT: Halo + Monogram -->
  <g transform="translate(120,120)">
    <!-- Ambient halo -->
    <circle cx="150" cy="150" r="140" fill="url(#haloGlow)"/>
    <!-- Outer ring -->
    <g filter="url(#ringGlow)">
      <circle cx="150" cy="150" r="120" fill="none" stroke="url(#lbRed)" stroke-width="12"/>
    </g>
    <!-- Inner ring -->
    <circle cx="150" cy="150" r="102" fill="none" stroke="url(#lbRed)" stroke-width="4" opacity="0.85"/>

    <!-- LB monogram -->
    <g filter="url(#softShadow)">
      <!-- L -->
      <path d="M86 78 h54 v144 h-82 v-36 h28 z" fill="url(#lbRed)"/>
      <!-- B -->
      <path d="
        M158 78 h82 l18 26 v32 l-18 20 18 22 v34 l-20 26 h-80 V78 z
        M194 110 v28 h32 l9-10 v-10 l-8-8 h-33 z
        M194 164 v30 h36 l10-12 v-9 l-10-9 h-36 z
      " fill="url(#lbRed)"/>
      <!-- sheen -->
      <path d="M86 78 h54 v70 h-82 v-36 h28 z" fill="url(#sheen)" />
      <path d="M158 78 h82 l18 26 v32 l-18 20 h-64 v-78 z" fill="url(#sheen)" opacity="0.45"/>
    </g>
  </g>

  <!-- RIGHT: Wordmark -->
  <!-- LEGACY (light) -->
  <text class="word" x="420" y="220" font-size="96" fill="#FFFFFF">LEGACY</text>
  <!-- BATTLE (red gradient) -->
  <text class="word" x="420" y="320" font-size="118" fill="url(#lbRed)">BATTLE</text>
</svg>